# xmcd CD database file generated by freedbAccess_ocx
#
# Track frame offsets:
#       150
#       13062
#       24912
#       36236
#       39574
#       49124
#       56974
#       67374
#       82249
#       94286
#       98449
#       109361
#       114679
#       127436
#       141849
#       156061
#       170661
#       187599
#
# Disc length: 2664 seconds
#
# Revision: 0
# Processed by: cddbd v1.5.2PL0 Copyright (c) Steve Scherf et al.
# Submitted via: CDnGo 2.09
#
DISCID=080a6612
DTITLE=Billie Holiday - Stormy Weather (4 Disc Set), Disc 4
DYEAR=2000
DGENRE=Blues
TTITLE0=Narration
TTITLE1=Lady Sings The Blues
TTITLE2=It Ain't Nobody's Business
TTITLE3=Narration With Vocal Trav'lin Light
TTITLE4=Narration
TTITLE5=Please Don't Talk About Me When I'm Gone
TTITLE6=I'll Be Seeing You
TTITLE7=I Love My Man
TTITLE8=Body And Soul
TTITLE9=Narration
TTITLE10=Don't Explain
TTITLE11=Yesterdays
TTITLE12=Narration
TTITLE13=My Man
TTITLE14=I Cried For You
TTITLE15=Fine And Mellow
TTITLE16=I Cover The Waterfront
TTITLE17=What A Little Moonlight Can Do
EXTD=
EXTT0=
EXTT1=
EXTT2=
EXTT3=
EXTT4=
EXTT5=
EXTT6=
EXTT7=
EXTT8=
EXTT9=
EXTT10=
EXTT11=
EXTT12=
EXTT13=
EXTT14=
EXTT15=
EXTT16=
EXTT17=
PLAYORDER=
